{
  "accessors": [
    {
      "bufferView": 2,
      "componentType": 5126,
      "count": 5640,
      "max": [
        6.067989826202393,
        18.974409103393555,
        16.868799209594727
      ],
      "min": [
        -7.470600128173828,
        -9.46697998046875,
        -0.13359999656677246
      ],
      "type": "VEC3"
    },
    {
      "bufferView": 2,
      "byteOffset": 67680,
      "componentType": 5126,
      "count": 5640,
      "max": [
        0.9999266862869263,
        0.9995037317276001,
        0.9999126195907593
      ],
      "min": [
        -0.9996088147163391,
        -0.9998319149017334,
        -0.9999015927314758
      ],
      "type": "VEC3"
    },
    {
      "bufferView": 3,
      "componentType": 5126,
      "count": 5640,
      "max": [
        0.999756932258606,
        0.9993599057197571,
        0.9998640418052673,
        1.0
      ],
      "min": [
        -0.9999672174453735,
        -0.9987802505493164,
        -0.9997516870498657,
        -1.0
      ],
      "type": "VEC4"
    },
    {
      "bufferView": 1,
      "componentType": 5126,
      "count": 5640,
      "max": [
        1.0,
        1.0
      ],
      "min": [
        0.0,
        0.014360000379383564
      ],
      "type": "VEC2"
    },
    {
      "bufferView": 1,
      "byteOffset": 45120,
      "componentType": 5126,
      "count": 5640,
      "max": [
        1.0,
        1.0
      ],
      "min": [
        0.0,
        0.014360000379383564
      ],
      "type": "VEC2"
    },
    {
      "bufferView": 1,
      "byteOffset": 90240,
      "componentType": 5126,
      "count": 5640,
      "max": [
        1.0,
        1.0
      ],
      "min": [
        0.0,
        0.014360000379383564
      ],
      "type": "VEC2"
    },
    {
      "bufferView": 0,
      "componentType": 5125,
      "count": 27504,
      "type": "SCALAR"
    },
    {
      "bufferView": 2,
      "byteOffset": 135360,
      "componentType": 5126,
      "count": 4,
      "max": [
        1.0,
        1.0,
        0.0
      ],
      "min": [
        -1.0,
        -1.0,
        0.0
      ],
      "type": "VEC3"
    },
    {
      "bufferView": 2,
      "byteOffset": 135408,
      "componentType": 5126,
      "count": 4,
      "max": [
        0.0,
        0.0,
        1.0
      ],
      "min": [
        0.0,
        0.0,
        1.0
      ],
      "type": "VEC3"
    },
    {
      "bufferView": 1,
      "byteOffset": 135360,
      "componentType": 5126,
      "count": 4,
      "max": [
        0.9998999834060669,
        0.9998999834060669
      ],
      "min": [
        9.999999747378752e-05,
        9.999999747378752e-05
      ],
      "type": "VEC2"
    },
    {
      "bufferView": 0,
      "byteOffset": 110016,
      "componentType": 5125,
      "count": 6,
      "type": "SCALAR"
    }
  ],
  "asset": {
    "extras": {
      "author": "Zafio (https://sketchfab.com/zafio)",
      "license": "CC-BY-SA-4.0 (http://creativecommons.org/licenses/by-sa/4.0/)",
      "source": "https://sketchfab.com/3d-models/charging-bull-3nXiIkAd3IlHVNc4hqw4VmaX3tK",
      "title": "Charging Bull"
    },
    "generator": "Sketchfab-12.68.0",
    "version": "2.0"
  },
  "bufferViews": [
    {
      "buffer": 0,
      "byteLength": 110040,
      "name": "floatBufferViews",
      "target": 34963
    },
    {
      "buffer": 0,
      "byteLength": 135392,
      "byteOffset": 110040,
      "byteStride": 8,
      "name": "floatBufferViews",
      "target": 34962
    },
    {
      "buffer": 0,
      "byteLength": 135456,
      "byteOffset": 245432,
      "byteStride": 12,
      "name": "floatBufferViews",
      "target": 34962
    },
    {
      "buffer": 0,
      "byteLength": 90240,
      "byteOffset": 380888,
      "byteStride": 16,
      "name": "floatBufferViews",
      "target": 34962
    }
  ],
  "buffers": [
    {
      "byteLength": 471128,
      "uri": "scene.bin"
    }
  ],
  "images": [
    {
      "uri": "textures/base_baseColor.png"
    },
    {
      "uri": "textures/bull_low_baseColor.jpeg"
    },
    {
      "uri": "textures/bull_low_metallicRoughness.png"
    },
    {
      "uri": "textures/bull_low_normal.jpeg"
    }
  ],
  "materials": [
    {
      "alphaMode": "BLEND",
      "name": "base",
      "pbrMetallicRoughness": {
        "baseColorFactor": [
          0.0003424751,
          0.0003424751,
          0.0003424751,
          1.0
        ],
        "baseColorTexture": {
          "index": 0
        },
        "metallicFactor": 0.0
      }
    },
    {
      "name": "bull_low",
      "normalTexture": {
        "index": 3
      },
      "occlusionTexture": {
        "index": 2
      },
      "pbrMetallicRoughness": {
        "baseColorFactor": [
          0.8427672956,
          0.8427672956,
          0.8427672956,
          1.0
        ],
        "baseColorTexture": {
          "index": 1
        },
        "metallicRoughnessTexture": {
          "index": 2
        }
      }
    }
  ],
  "meshes": [
    {
      "name": "bull_low_0",
      "primitives": [
        {
          "attributes": {
            "NORMAL": 1,
            "POSITION": 0,
            "TANGENT": 2,
            "TEXCOORD_0": 3,
            "TEXCOORD_1": 4,
            "TEXCOORD_2": 5
          },
          "indices": 6,
          "material": 1,
          "mode": 4
        }
      ]
    },
    {
      "name": "base_0",
      "primitives": [
        {
          "attributes": {
            "NORMAL": 8,
            "POSITION": 7,
            "TEXCOORD_0": 9
          },
          "indices": 10,
          "material": 0,
          "mode": 4
        }
      ]
    }
  ],
  "nodes": [
    {
      "children": [
        1
      ],
      "matrix": [
        0.0833333358168602,
        0.0,
        0.0,
        0.0,
        0.0,
        1.8503717628539684e-17,
        -0.0833333358168602,
        0.0,
        0.0,
        0.0833333358168602,
        1.8503717628539684e-17,
        0.0,
        0.0,
        0.0,
        0.0,
        1.0
      ],
      "name": "Sketchfab_model"
    },
    {
      "children": [
        2,
        4,
        6,
        8,
        10,
        12,
        14,
        16
      ],
      "name": "Root"
    },
    {
      "children": [
        3
      ],
      "name": "bull_low"
    },
    {
      "mesh": 0,
      "name": "bull_low_0"
    },
    {
      "children": [
        5
      ],
      "matrix": [
        0.37275,
        0.9104099999999999,
        0.47339000000000003,
        0.0,
        -0.9389500000000001,
        0.50577,
        -0.23335,
        0.0,
        -0.41390000000000005,
        -0.3274700000000001,
        0.9556900000000002,
        0.0,
        -10.99921,
        -10.26054,
        25.03376,
        1.0
      ],
      "name": "Point"
    },
    {
      "name": "Point"
    },
    {
      "children": [
        7
      ],
      "matrix": [
        33.50359,
        0.0,
        0.0,
        0.0,
        0.0,
        33.50359,
        0.0,
        0.0,
        0.0,
        0.0,
        33.50359,
        0.0,
        -0.21652000000000002,
        4.5729299999999995,
        0.043630000000000016,
        1.0
      ],
      "name": "base"
    },
    {
      "mesh": 1,
      "name": "base_0"
    },
    {
      "children": [
        9
      ],
      "matrix": [
        1.0,
        0.0,
        0.0,
        0.0,
        0.0,
        1.0,
        0.0,
        0.0,
        0.0,
        0.0,
        1.0,
        0.0,
        26.201850000000004,
        -15.25542,
        13.84039,
        1.0
      ],
      "name": "Point.001"
    },
    {
      "name": "Point.001"
    },
    {
      "children": [
        11
      ],
      "matrix": [
        1.0,
        0.0,
        0.0,
        0.0,
        0.0,
        1.0,
        0.0,
        0.0,
        0.0,
        0.0,
        1.0,
        0.0,
        -10.67665,
        31.901850000000003,
        16.47725,
        1.0
      ],
      "name": "Point.002"
    },
    {
      "name": "Point.002"
    },
    {
      "children": [
        13
      ],
      "matrix": [
        1.0,
        0.0,
        0.0,
        0.0,
        0.0,
        1.0,
        0.0,
        0.0,
        0.0,
        0.0,
        1.0,
        0.0,
        12.869940000000001,
        32.335510000000006,
        17.81034,
        1.0
      ],
      "name": "Point.003"
    },
    {
      "name": "Point.003"
    },
    {
      "children": [
        15
      ],
      "matrix": [
        1.0,
        0.0,
        0.0,
        0.0,
        0.0,
        1.0,
        0.0,
        0.0,
        0.0,
        0.0,
        1.0,
        0.0,
        -1.17897,
        34.825070000000004,
        28.737910000000003,
        1.0
      ],
      "name": "Point.004"
    },
    {
      "name": "Point.004"
    },
    {
      "children": [
        17
      ],
      "matrix": [
        1.0,
        0.0,
        0.0,
        0.0,
        0.0,
        1.0,
        0.0,
        0.0,
        0.0,
        0.0,
        1.0,
        0.0,
        2.36202,
        -11.27323,
        18.3816,
        1.0
      ],
      "name": "Point.005"
    },
    {
      "name": "Point.005"
    }
  ],
  "samplers": [
    {
      "magFilter": 9729,
      "minFilter": 9987,
      "wrapS": 10497,
      "wrapT": 10497
    }
  ],
  "scene": 0,
  "scenes": [
    {
      "name": "Sketchfab_Scene",
      "nodes": [
        0
      ]
    }
  ],
  "textures": [
    {
      "sampler": 0,
      "source": 0
    },
    {
      "sampler": 0,
      "source": 1
    },
    {
      "sampler": 0,
      "source": 2
    },
    {
      "sampler": 0,
      "source": 3
    }
  ]
}
